<svg width="64" height="64" viewBox="0 0 64 64" fill="none" xmlns="http://www.w3.org/2000/svg">
<path d="M52 64H12C5.372 64 0 58.628 0 52V12C0 5.372 5.372 0 12 0H52C58.628 0 64 5.372 64 12V52C64 58.628 58.628 64 52 64Z" fill="#FFE4E7"/>
<path d="M37.442 24.576L36.868 28.176C36.806 28.554 36.968 28.934 37.282 29.152C37.452 29.272 37.654 29.332 37.854 29.332C38.02 29.332 38.188 29.29 38.34 29.206L41.352 27.528L44.376 29.184C44.71 29.368 45.122 29.346 45.436 29.122C45.748 28.9 45.906 28.52 45.844 28.142L45.244 24.546L47.716 21.998C47.978 21.73 48.066 21.336 47.946 20.982C47.826 20.626 47.518 20.368 47.146 20.314L43.756 19.808L42.22 16.57C42.058 16.222 41.706 16 41.32 16C41.318 16 41.318 16 41.316 16C40.93 16.002 40.576 16.226 40.414 16.578L38.9 19.826L35.512 20.354C35.142 20.412 34.834 20.672 34.718 21.028C34.6 21.384 34.692 21.776 34.954 22.042L37.442 24.576Z" fill="#FF808E"/>
<path d="M47.1481 38.984L43.7581 38.478L42.2221 35.24C42.0561 34.892 41.7061 34.668 41.3181 34.668C41.3161 34.668 41.3161 34.668 41.3141 34.668C40.9281 34.67 40.5741 34.894 40.4121 35.246L38.8981 38.494L35.5101 39.022C35.1401 39.08 34.8321 39.34 34.7161 39.696C34.5981 40.052 34.6901 40.444 34.9521 40.71L37.4421 43.242L36.8681 46.842C36.8061 47.22 36.9681 47.6 37.2821 47.818C37.4521 47.938 37.6541 47.998 37.8541 47.998C38.0201 47.998 38.1881 47.956 38.3401 47.872L41.3521 46.194L44.3761 47.85C44.7101 48.034 45.1221 48.01 45.4361 47.788C45.7481 47.566 45.9061 47.186 45.8441 46.808L45.2441 43.212L47.7161 40.664C47.9781 40.396 48.0661 40.002 47.9461 39.648C47.8261 39.296 47.5181 39.038 47.1481 38.984Z" fill="#FF808E"/>
<path d="M30.334 34.334H27.668C27.116 34.334 26.668 33.886 26.668 33.334C26.668 32.782 27.116 32.334 27.668 32.334H30.334C30.886 32.334 31.334 32.782 31.334 33.334C31.334 33.886 30.886 34.334 30.334 34.334Z" fill="#FFB3BB"/>
<path d="M33.666 44H30.332C29.78 44 29.332 43.552 29.332 43V25C29.332 24.448 29.78 24 30.332 24H33.666C34.218 24 34.666 24.448 34.666 25C34.666 25.552 34.218 26 33.666 26H31.332V42H33.666C34.218 42 34.666 42.448 34.666 43C34.666 43.552 34.218 44 33.666 44Z" fill="#FFB3BB"/>
<path d="M21.334 32C19.864 32 18.668 30.804 18.668 29.334C18.668 27.864 19.864 26.668 21.334 26.668C22.804 26.668 24 27.864 24 29.334C24 30.804 22.804 32 21.334 32Z" fill="#FF808E"/>
<path d="M25.666 38.666H17C16.448 38.666 16 38.218 16 37.666V37C16 34.978 17.644 33.334 19.666 33.334H23C25.022 33.334 26.666 34.978 26.666 37V37.666C26.666 38.218 26.218 38.666 25.666 38.666Z" fill="#FF808E"/>
</svg>
