<svg width="64" height="64" viewBox="0 0 64 64" fill="none" xmlns="http://www.w3.org/2000/svg">
<path d="M52 64H12C5.37207 64 0 58.6279 0 52V12C0 5.37207 5.37207 0 12 0H52C58.6279 0 64 5.37207 64 12V52C64 58.6279 58.6279 64 52 64Z" fill="white"/>
<path d="M39 16H19.666C17.644 16 16 17.644 16 19.666V24.332C16 26.356 17.644 28 19.666 28H39C41.022 28 42.666 26.356 42.666 24.334V19.668C42.666 17.644 41.022 16 39 16Z" fill="#CCB3FF"/>
<path d="M44.666 20.666H42.666V23.332H44.666C45.0342 23.332 45.332 23.6299 45.332 23.998V29.998C45.332 30.3662 45.0322 30.6641 44.666 30.6641H31.332C29.126 30.6641 27.332 32.458 27.332 34.6641V36H30V34.666C30 33.9321 30.5981 33.332 31.334 33.332H44.668C46.5059 33.334 48 31.8379 48 30V24C48 22.1621 46.5059 20.666 44.666 20.666Z" fill="#E0D1FF"/>
<path d="M31 36H26.334C25.0459 36 24 37.0459 24 38.334V45.668C24 46.9541 25.0459 48 26.334 48H31C32.2861 48 33.334 46.9541 33.334 45.666V38.332C33.334 37.0459 32.2861 36 31 36Z" fill="#CCB3FF"/>
</svg>
